<?xml version="1.0" encoding="utf-8"?>
<!-- Generator: Adobe Illustrator 24.0.2, SVG Export Plug-In . SVG Version: 6.00 Build 0)  -->
<svg version="1.1" id="Capa_1" xmlns="http://www.w3.org/2000/svg" xmlns:xlink="http://www.w3.org/1999/xlink" x="0px" y="0px"
	 viewBox="0 0 1200 650" style="enable-background:new 0 0 1200 650;" xml:space="preserve">
<style type="text/css">
	.st0{fill:none;stroke:#878787;stroke-width:2;stroke-miterlimit:10;stroke-dasharray:6,3;}
	.st1{fill:#A3A3A3;}
	.st2{fill:none;stroke:#08AD75;stroke-width:2;stroke-miterlimit:10;stroke-dasharray:6,3;}
	.st3{fill:#08AD75;}
</style>
<g>
	<polyline class="st0" points="45,62 32,62 32,280 45,280 	"/>
	<polygon class="st1" points="57,53 45,62 57,71 	"/>
	<polygon class="st1" points="43.5,271 58.5,280 43.5,289 	"/>
</g>
<g>
	<polyline class="st0" points="44.8,298 31.8,298 31.8,516 44.8,516 	"/>
	<polygon class="st1" points="56.8,289 44.8,298 56.8,307 	"/>
	<polygon class="st1" points="43.2,507 58.2,516 43.2,525 	"/>
</g>
<polyline class="st2" points="229,516 1189,516 1189,458 "/>
<polyline class="st2" points="495,516 495,196 1051,196 "/>
<line class="st2" x1="1189" y1="394" x2="1189" y2="249.1"/>
<polygon class="st3" points="214,507 229,516 214,525 "/>
<polygon class="st3" points="1180,458 1189,443 1198,458 "/>
<polygon class="st3" points="1043.5,187 1058.5,196 1043.5,205 "/>
<polygon class="st3" points="1180,253.1 1189,238.1 1198,253.1 "/>
<polygon class="st3" points="1197.6,384.7 1188.6,399.7 1179.6,384.7 "/>
</svg>
