<?xml version="1.0" encoding="utf-8"?>
<!-- Generator: Adobe Illustrator 24.0.2, SVG Export Plug-In . SVG Version: 6.00 Build 0)  -->
<svg version="1.1" id="Capa_1" xmlns="http://www.w3.org/2000/svg" xmlns:xlink="http://www.w3.org/1999/xlink" x="0px" y="0px"
	 viewBox="0 0 1200 650" style="enable-background:new 0 0 1200 650;" xml:space="preserve">
<style type="text/css">
	.st0{fill:none;stroke:#878787;stroke-width:2;stroke-miterlimit:10;stroke-dasharray:6,3;}
	.st1{fill:#A3A3A3;}
	.st2{fill:none;stroke:#08AD75;stroke-width:2;stroke-miterlimit:10;stroke-dasharray:6,3;}
	.st3{fill:#08AD75;}
</style>
<g>
	<polyline class="st0" points="48.9,48.1 27,48.1 27,303.8 40,303.8 	"/>
	<polygon class="st1" points="40,295.6 51.8,303.8 40,312 	"/>
</g>
<g>
	<polyline class="st0" points="49.8,335.7 26.8,335.8 26.8,607.3 39.8,607.3 	"/>
	<polygon class="st1" points="38.2,598.5 53.2,607.3 38.2,616 	"/>
</g>
<line class="st2" x1="226" y1="607" x2="495" y2="606.9"/>
<polyline class="st2" points="495,606.9 495,187 1051,187 "/>
<line class="st2" x1="1105.4" y1="313.6" x2="1105.4" y2="217.9"/>
<polygon class="st3" points="211,598 226,607 211,616 "/>
<polygon class="st3" points="1044.5,406.3 1058.5,415.3 1044.5,424.3 "/>
<polygon class="st3" points="1043.5,178 1058.5,187 1043.5,196 "/>
<polygon class="st3" points="1114.4,313.6 1105.4,328.6 1096.4,313.6 "/>
<line class="st2" x1="495" y1="415.5" x2="1051" y2="415.3"/>
<line class="st2" x1="1105.4" y1="535.7" x2="1105.4" y2="440.1"/>
<polygon class="st3" points="1114.4,535.7 1105.4,550.7 1096.4,535.7 "/>
<polyline class="st0" points="51.8,320.4 11.1,320.4 12.4,638.3 1038.9,637.9 "/>
<polygon class="st1" points="1036.5,630.2 1048.3,638.3 1036.5,646.5 "/>
</svg>
