<svg id="Capa_1" data-name="Capa 1" xmlns="http://www.w3.org/2000/svg" viewBox="0 0 457.9 70.48"><defs><style>.cls-1{fill:#fff;}</style></defs><title>logo_blanco</title><path class="cls-1" d="M422.57,1c-20.54,0-37,15.86-37,35.24s16.48,35.24,37,35.24,37-15.83,37-35.24S443.11,1,422.57,1Zm0,51.65c-8.95,0-15.53-6.74-15.53-16.41s6.58-16.4,15.53-16.4,15.53,6.73,15.53,16.4S431.52,52.65,422.57,52.65Zm-59-8.92,15,14.41a37.62,37.62,0,0,1-29,13.34c-20.54,0-37-15.83-37-35.24S329,1,349.53,1a37.62,37.62,0,0,1,29,13.34l-15,14.41a14.9,14.9,0,0,0-14-8.91c-8.95,0-15.53,6.73-15.53,16.4s6.58,16.41,15.53,16.41A14.88,14.88,0,0,0,363.54,43.73ZM122.85,2.1h17.66V22.58h-31V70.4H88V2.1h21.48V14.93ZM49.22,8.62h0A26.42,26.42,0,0,0,31,1C14.82,1,1.69,16.81,1.69,36.25S14.82,71.48,31,71.48a26.43,26.43,0,0,0,18.18-7.59h0L56,70.4h17.2V2.1H56ZM51.73,46.9a14.41,14.41,0,0,1-12.09,5.76c-10.24,0-16.46-7.38-16.46-16.41S29.4,19.87,39.64,19.87a14.41,14.41,0,0,1,12.09,5.72ZM193.41,8.62h0A26.38,26.38,0,0,0,175.23,1C159,1,145.88,16.81,145.88,36.25S159,71.48,175.23,71.48a26.39,26.39,0,0,0,18.18-7.59h0l6.79,6.52h17.2V2.1H200.19Zm2.52,38.28a14.45,14.45,0,0,1-12.1,5.76c-10.24,0-16.46-7.38-16.46-16.41s6.22-16.38,16.46-16.38a14.44,14.44,0,0,1,12.1,5.72Zm36.57,7.89V2.1H254V49.84h23.09V2.1h21.48V70.4H248.77Z" transform="translate(-1.69 -1)"/></svg>