<?xml version="1.0" encoding="utf-8"?>
<!-- Generator: Adobe Illustrator 24.0.2, SVG Export Plug-In . SVG Version: 6.00 Build 0)  -->
<svg version="1.1" id="Capa_1" xmlns="http://www.w3.org/2000/svg" xmlns:xlink="http://www.w3.org/1999/xlink" x="0px" y="0px"
	 viewBox="0 0 512 335" style="enable-background:new 0 0 512 335;" xml:space="preserve">
<style type="text/css">
	.st0{fill:#FFFFFF;}
</style>
<g>
	<path class="st0" d="M89,330c-19.3,0-35-15.7-35-35s15.7-35,35-35s35,15.7,35,35S108.3,330,89,330z"/>
	<g>
		<path class="st0" d="M340,210H0v75c0,8.3,6.7,15,15,15h9.2c-0.1-1.7-0.2-3.3-0.2-5c0-35.8,29.2-65,65-65c12.9,0,24.9,3.8,35,10.3
			c10.1-6.5,22.1-10.3,35-10.3c35.8,0,65,29.2,65,65c0,1.7-0.1,3.3-0.2,5H340V210z"/>
	</g>
	<path class="st0" d="M159,330c-19.3,0-35-15.7-35-35s15.7-35,35-35s35,15.7,35,35S178.3,330,159,330z"/>
	<path class="st0" d="M432,180h75.8l-26.6-79.7c-2-6.1-7.8-10.3-14.2-10.3h-35L432,180z"/>
	<g>
		<path class="st0" d="M15,0C6.7,0,0,6.7,0,15v165h340V15c0-8.3-6.7-15-15-15H15z M74,130c0,8.3-6.7,15-15,15s-15-6.7-15-15V50
			c0-8.3,6.7-15,15-15s15,6.7,15,15V130z M148,130c0,8.3-6.7,15-15,15s-15-6.7-15-15V50c0-8.3,6.7-15,15-15s15,6.7,15,15V130z
			 M222,130c0,8.3-6.7,15-15,15s-15-6.7-15-15V50c0-8.3,6.7-15,15-15s15,6.7,15,15V130z M296,130c0,8.3-6.7,15-15,15s-15-6.7-15-15
			V50c0-8.3,6.7-15,15-15s15,6.7,15,15V130z"/>
	</g>
	<g>
		<path class="st0" d="M388,295c0-19.3,15.7-35,35-35s35,15.7,35,35s-15.7,35-35,35S388,314.3,388,295z"/>
		<g>
			<path class="st0" d="M417,210c-8.3,0-15-6.7-15-15V90h-32v167.4c11.8-16.6,31.1-27.4,53-27.4c35.8,0,65,29.2,65,65
				c0,1.7-0.1,3.3-0.2,5h9.2c8.3,0,15-6.7,15-15v-75L417,210z"/>
		</g>
	</g>
</g>
</svg>
