<?xml version="1.0" encoding="utf-8"?>
<!-- Generator: Adobe Illustrator 24.0.2, SVG Export Plug-In . SVG Version: 6.00 Build 0)  -->
<svg version="1.1" id="Capa_1" xmlns="http://www.w3.org/2000/svg" xmlns:xlink="http://www.w3.org/1999/xlink" x="0px" y="0px"
	 viewBox="0 0 89.9 75.3" style="enable-background:new 0 0 89.9 75.3;" xml:space="preserve">
<style type="text/css">
	.st0{fill:#121212;}
	.st1{fill:#B5B5B5;}
	.st2{fill:#EFEFEF;}
	.st3{fill:#7C7C7C;}
</style>
<g id="Capa_1_1_">
	<g id="Capa_1_5_">
		<path id="Fill-205_10_" class="st0" d="M31.6,68.1c0.2,0.1,0.2,0.4,0,0.5s-0.6,0.1-0.8,0c-0.2-0.1-0.2-0.4,0-0.5
			C31,68,31.4,68,31.6,68.1"/>
		<path id="Fill-207_10_" class="st0" d="M33.5,66.7c0.2,0.1,0.2,0.4,0,0.5s-0.6,0.1-0.8,0s-0.2-0.4,0-0.5S33.4,66.6,33.5,66.7"/>
		<path id="Fill-209_10_" class="st0" d="M35.6,65.4c0.2,0.1,0.2,0.4,0,0.5s-0.6,0.1-0.8,0s-0.2-0.4,0-0.5
			C35,65.3,35.3,65.3,35.6,65.4"/>
		<path id="Fill-211_28_" class="st0" d="M28.8,66.7c0.2-0.1,0.6-0.1,0.8,0c0.2,0.1,0.2,0.4,0,0.5s-0.6,0.1-0.8,0
			C28.6,67.1,28.6,66.8,28.8,66.7"/>
		<path id="Fill-213_10_" class="st0" d="M31.6,65.4c0.2,0.1,0.2,0.4,0,0.5s-0.6,0.1-0.8,0c-0.2-0.1-0.2-0.4,0-0.5
			C31,65.3,31.4,65.3,31.6,65.4"/>
		<path id="Fill-215_10_" class="st0" d="M33.5,64.1c0.2,0.1,0.2,0.4,0,0.5s-0.6,0.1-0.8,0s-0.2-0.4,0-0.5C33,64,33.4,64,33.5,64.1"
			/>
		<path id="Fill-217_28_" class="st0" d="M29.6,64.1c0.2,0.1,0.2,0.4,0,0.5s-0.6,0.1-0.8,0s-0.2-0.4,0-0.5C29,64,29.4,64,29.6,64.1"
			/>
		<path id="Fill-219_10_" class="st0" d="M31.6,62.8c0.2,0.1,0.2,0.4,0,0.5s-0.6,0.1-0.8,0c-0.2-0.1-0.2-0.4,0-0.5
			C31,62.6,31.4,62.6,31.6,62.8"/>
		<path id="Fill-221_28_" class="st0" d="M29.6,61.5c0.2,0.1,0.2,0.4,0,0.5s-0.6,0.1-0.8,0s-0.2-0.4,0-0.5
			C29,61.3,29.4,61.3,29.6,61.5"/>
		<path id="Fill-211_27_" class="st0" d="M26.4,65.3c0.2-0.1,0.6-0.1,0.8,0c0.2,0.1,0.2,0.4,0,0.5s-0.6,0.1-0.8,0
			C26.3,65.8,26.3,65.4,26.4,65.3"/>
		<path id="Fill-217_27_" class="st0" d="M27.2,62.7c0.2,0.1,0.2,0.4,0,0.5s-0.6,0.1-0.8,0s-0.2-0.4,0-0.5
			C26.8,62.6,27.1,62.6,27.2,62.7"/>
		<path id="Fill-221_27_" class="st0" d="M27.2,60c0.2,0.1,0.2,0.4,0,0.5s-0.6,0.1-0.8,0s-0.2-0.4,0-0.5C26.8,60,27.1,60,27.2,60"/>
		<path id="Fill-211_26_" class="st0" d="M24.1,63.9c0.2-0.1,0.6-0.1,0.8,0c0.2,0.1,0.2,0.4,0,0.5s-0.6,0.1-0.8,0
			C23.8,64.2,23.8,64,24.1,63.9"/>
		<path id="Fill-217_26_" class="st0" d="M24.9,61.3c0.2,0.1,0.2,0.4,0,0.5s-0.6,0.1-0.8,0c-0.2-0.1-0.2-0.4,0-0.5
			C24.3,61.1,24.6,61.1,24.9,61.3"/>
		<path id="Fill-221_26_" class="st0" d="M24.9,58.7c0.2,0.1,0.2,0.4,0,0.5s-0.6,0.1-0.8,0c-0.2-0.1-0.2-0.4,0-0.5
			C24.3,58.4,24.6,58.4,24.9,58.7"/>
		<g id="Group-225_8_" transform="translate(27.000000, 149.000000)">
			<g id="Clip-224_8_">
			</g>
			<path id="Fill-223_10_" class="st0" d="M16.7-75.9c0.2,0.1,0.2,0.4,0,0.5s-0.6,0.1-0.8,0c-0.2-0.1-0.2-0.4,0-0.5
				C16-75.9,16.4-75.9,16.7-75.9"/>
		</g>
		<g id="Group-225_7_" transform="translate(27.000000, 149.000000)">
			<g id="Clip-224_7_">
			</g>
			<path id="Fill-223_9_" class="st0" d="M14.9-75c0.2,0.1,0.2,0.4,0,0.5s-0.6,0.1-0.8,0s-0.2-0.4,0-0.5
				C14.3-75.2,14.7-75.2,14.9-75"/>
		</g>
		<path id="Fill-226_5_" class="st0" d="M45.6,71.8c0.2,0.1,0.2,0.4,0,0.5s-0.6,0.1-0.8,0s-0.2-0.4,0-0.5
			C45.1,71.6,45.4,71.6,45.6,71.8"/>
		<path id="Fill-228_5_" class="st0" d="M47.7,70.5c0.2,0.1,0.2,0.4,0,0.5s-0.6,0.1-0.8,0s-0.2-0.4,0-0.5
			C47,70.3,47.4,70.3,47.7,70.5"/>
		<path id="Fill-230_5_" class="st0" d="M49.6,69.3c0.2,0.1,0.2,0.4,0,0.5s-0.6,0.1-0.8,0s-0.2-0.4,0-0.5C49,69,49.5,69,49.6,69.3"
			/>
		<path id="Fill-232_5_" class="st0" d="M51.6,67.9c0.2,0.1,0.2,0.4,0,0.5s-0.6,0.1-0.8,0s-0.2-0.4,0-0.5
			C51,67.8,51.4,67.8,51.6,67.9"/>
		<path id="Fill-234_5_" class="st0" d="M53.7,66.6c0.2,0.1,0.2,0.4,0,0.5s-0.6,0.1-0.8,0s-0.2-0.4,0-0.5
			C53.1,66.4,53.4,66.4,53.7,66.6"/>
		<path id="Fill-236_5_" class="st0" d="M55.6,65.2c0.2,0.1,0.2,0.4,0,0.5s-0.6,0.1-0.8,0s-0.2-0.4,0-0.5
			C55.1,65.2,55.3,65.2,55.6,65.2"/>
		<path id="Fill-238_5_" class="st0" d="M57.6,63.9c0.2,0.1,0.2,0.4,0,0.5s-0.6,0.1-0.8,0s-0.2-0.4,0-0.5S57.4,63.7,57.6,63.9"/>
		<path id="Fill-240_5_" class="st0" d="M59.5,62.6c0.2,0.1,0.2,0.4,0,0.5s-0.6,0.1-0.8,0s-0.2-0.4,0-0.5
			C59.1,62.4,59.4,62.4,59.5,62.6"/>
		<path id="Fill-242_5_" class="st0" d="M61.5,61.3c0.2,0.1,0.2,0.4,0,0.5s-0.6,0.1-0.8,0s-0.2-0.4,0-0.5
			C61,61.1,61.3,61.1,61.5,61.3"/>
		<path id="Fill-244_5_" class="st0" d="M63.6,60c0.2,0.1,0.2,0.4,0,0.5s-0.6,0.1-0.8,0s-0.2-0.4,0-0.5C63,59.8,63.4,59.8,63.6,60"
			/>
		<path id="Fill-246_5_" class="st0" d="M65.5,58.5c0.2,0.1,0.2,0.4,0,0.5s-0.6,0.1-0.8,0s-0.2-0.4,0-0.5
			C64.9,58.5,65.4,58.4,65.5,58.5"/>
		<path id="Fill-248_5_" class="st0" d="M67.5,57.4c0.2,0.1,0.2,0.4,0,0.5s-0.6,0.1-0.8,0s-0.2-0.4,0-0.5
			C67.1,57.1,67.3,57.1,67.5,57.4"/>
		<path id="Fill-250_5_" class="st0" d="M69.6,56c0.2,0.1,0.2,0.4,0,0.5s-0.6,0.1-0.8,0s-0.2-0.4,0-0.5C69,55.8,69.3,55.8,69.6,56"
			/>
		<path id="Fill-252_5_" class="st0" d="M71.6,54.7c0.2,0.1,0.2,0.4,0,0.5s-0.6,0.1-0.8,0s-0.2-0.4,0-0.5
			C70.9,54.5,71.4,54.5,71.6,54.7"/>
		<path id="Fill-254_5_" class="st0" d="M73.5,53.4c0.2,0.1,0.2,0.4,0,0.5s-0.6,0.1-0.8,0s-0.2-0.4,0-0.5
			C73,53.2,73.4,53.2,73.5,53.4"/>
		<path id="Fill-256_8_" class="st0" d="M38.8,73.1c0.2-0.1,0.6-0.1,0.8,0s0.2,0.4,0,0.5s-0.6,0.1-0.8,0S38.6,73.3,38.8,73.1"/>
		<path id="Fill-258_5_" class="st0" d="M41.7,71.8c0.2,0.1,0.2,0.4,0,0.5s-0.6,0.1-0.8,0s-0.2-0.4,0-0.5
			C41.1,71.6,41.5,71.6,41.7,71.8"/>
		<path id="Fill-260_5_" class="st0" d="M43.7,70.5c0.2,0.1,0.2,0.4,0,0.5s-0.6,0.1-0.8,0s-0.2-0.4,0-0.5
			C43,70.3,43.4,70.3,43.7,70.5"/>
		<path id="Fill-262_5_" class="st0" d="M45.6,69.2c0.2,0.1,0.2,0.4,0,0.5s-0.6,0.1-0.8,0s-0.2-0.4,0-0.5S45.4,69,45.6,69.2"/>
		<path id="Fill-264_5_" class="st0" d="M47.5,67.9c0.2,0.1,0.2,0.4,0,0.5s-0.6,0.1-0.8,0s-0.2-0.4,0-0.5
			C47,67.8,47.3,67.8,47.5,67.9"/>
		<path id="Fill-266_5_" class="st0" d="M49.6,66.6c0.2,0.1,0.2,0.4,0,0.5s-0.6,0.1-0.8,0s-0.2-0.4,0-0.5
			C49,66.3,49.4,66.3,49.6,66.6"/>
		<path id="Fill-268_5_" class="st0" d="M51.6,65.2c0.2,0.1,0.2,0.4,0,0.5s-0.6,0.1-0.8,0s-0.2-0.4,0-0.5C51,65.2,51.4,65,51.6,65.2
			"/>
		<path id="Fill-270_5_" class="st0" d="M53.5,63.9c0.2,0.1,0.2,0.4,0,0.5s-0.6,0.1-0.8,0s-0.2-0.4,0-0.5
			C53.1,63.7,53.3,63.7,53.5,63.9"/>
		<path id="Fill-272_5_" class="st0" d="M55.6,62.6c0.2,0.1,0.2,0.4,0,0.5s-0.6,0.1-0.8,0s-0.2-0.4,0-0.5
			C55.1,62.4,55.3,62.4,55.6,62.6"/>
		<path id="Fill-274_5_" class="st0" d="M57.6,61.3c0.2,0.1,0.2,0.4,0,0.5s-0.6,0.1-0.8,0s-0.2-0.4,0-0.5
			C57,61.1,57.4,61.1,57.6,61.3"/>
		<path id="Fill-276_5_" class="st0" d="M59.5,60c0.2,0.1,0.2,0.4,0,0.5s-0.6,0.1-0.8,0s-0.2-0.4,0-0.5C59.1,59.8,59.4,59.8,59.5,60
			"/>
		<path id="Fill-278_5_" class="st0" d="M61.5,58.5c0.2,0.1,0.2,0.4,0,0.5s-0.6,0.1-0.8,0s-0.2-0.4,0-0.5
			C61,58.5,61.3,58.4,61.5,58.5"/>
		<path id="Fill-280_5_" class="st0" d="M63.6,57.3c0.2,0.1,0.2,0.4,0,0.5s-0.6,0.1-0.8,0s-0.2-0.4,0-0.5
			C63,57.1,63.4,57.1,63.6,57.3"/>
		<path id="Fill-282_5_" class="st0" d="M65.5,56c0.2,0.1,0.2,0.4,0,0.5s-0.6,0.1-0.8,0s-0.2-0.4,0-0.5C64.9,55.8,65.4,55.8,65.5,56
			"/>
		<path id="Fill-284_5_" class="st0" d="M67.5,54.7c0.2,0.1,0.2,0.4,0,0.5s-0.6,0.1-0.8,0s-0.2-0.4,0-0.5
			C67,54.5,67.3,54.5,67.5,54.7"/>
		<path id="Fill-286_5_" class="st0" d="M69.6,53.4c0.2,0.1,0.2,0.4,0,0.5s-0.6,0.1-0.8,0s-0.2-0.4,0-0.5S69.3,53.2,69.6,53.4"/>
		<path id="Fill-288_5_" class="st0" d="M71.6,52.1c0.2,0.1,0.2,0.4,0,0.5s-0.6,0.1-0.8,0s-0.2-0.4,0-0.5
			C70.9,51.8,71.4,51.8,71.6,52.1"/>
		<path id="Fill-290_8_" class="st0" d="M36.8,71.8c0.2-0.1,0.6-0.1,0.8,0s0.2,0.4,0,0.5s-0.6,0.1-0.8,0S36.6,72,36.8,71.8"/>
		<path id="Fill-292_8_" class="st0" d="M39.6,70.5c0.2,0.1,0.2,0.4,0,0.5s-0.6,0.1-0.8,0s-0.2-0.4,0-0.5
			C39.1,70.3,39.4,70.3,39.6,70.5"/>
		<path id="Fill-294_5_" class="st0" d="M41.7,69.2c0.2,0.1,0.2,0.4,0,0.5s-0.6,0.1-0.8,0s-0.2-0.4,0-0.5C41.1,69,41.5,69,41.7,69.2
			"/>
		<path id="Fill-296_5_" class="st0" d="M43.7,67.9c0.2,0.1,0.2,0.4,0,0.5s-0.6,0.1-0.8,0s-0.2-0.4,0-0.5
			C43,67.8,43.4,67.8,43.7,67.9"/>
		<path id="Fill-298_5_" class="st0" d="M45.6,66.6c0.2,0.1,0.2,0.4,0,0.5s-0.6,0.1-0.8,0s-0.2-0.4,0-0.5
			C45.1,66.3,45.4,66.3,45.6,66.6"/>
		<path id="Fill-300_5_" class="st0" d="M47.5,65.2c0.2,0.1,0.2,0.4,0,0.5s-0.6,0.1-0.8,0s-0.2-0.4,0-0.5C47,65,47.3,65,47.5,65.2"
			/>
		<path id="Fill-302_5_" class="st0" d="M49.6,63.9c0.2,0.1,0.2,0.4,0,0.5s-0.6,0.1-0.8,0s-0.2-0.4,0-0.5S49.4,63.7,49.6,63.9"/>
		<path id="Fill-304_5_" class="st0" d="M51.6,62.6c0.2,0.1,0.2,0.4,0,0.5s-0.6,0.1-0.8,0s-0.2-0.4,0-0.5
			C51,62.4,51.4,62.4,51.6,62.6"/>
		<path id="Fill-306_5_" class="st0" d="M53.5,61.3c0.2,0.1,0.2,0.4,0,0.5s-0.6,0.1-0.8,0s-0.2-0.4,0-0.5
			C53.1,61.1,53.3,61.1,53.5,61.3"/>
		<path id="Fill-308_5_" class="st0" d="M55.6,60c0.2,0.1,0.2,0.4,0,0.5s-0.6,0.1-0.8,0s-0.2-0.4,0-0.5S55.3,59.8,55.6,60"/>
		<path id="Fill-310_5_" class="st0" d="M57.6,58.5c0.2,0.1,0.2,0.4,0,0.5s-0.6,0.1-0.8,0s-0.2-0.4,0-0.5
			C57,58.5,57.4,58.4,57.6,58.5"/>
		<path id="Fill-312_5_" class="st0" d="M59.5,57.3c0.2,0.1,0.2,0.4,0,0.5s-0.6,0.1-0.8,0s-0.2-0.4,0-0.5S59.4,57.1,59.5,57.3"/>
		<path id="Fill-314_5_" class="st0" d="M61.5,56c0.2,0.1,0.2,0.4,0,0.5s-0.6,0.1-0.8,0s-0.2-0.4,0-0.5S61.3,55.8,61.5,56"/>
		<path id="Fill-316_5_" class="st0" d="M63.6,54.7c0.2,0.1,0.2,0.4,0,0.5s-0.6,0.1-0.8,0s-0.2-0.4,0-0.5
			C63,54.5,63.4,54.5,63.6,54.7"/>
		<path id="Fill-318_5_" class="st0" d="M65.5,53.4c0.2,0.1,0.2,0.4,0,0.5s-0.6,0.1-0.8,0s-0.2-0.4,0-0.5
			C64.9,53.2,65.4,53.2,65.5,53.4"/>
		<path id="Fill-320_5_" class="st0" d="M67.5,52.1c0.2,0.1,0.2,0.4,0,0.5s-0.6,0.1-0.8,0s-0.2-0.4,0-0.5
			C67,51.8,67.3,51.8,67.5,52.1"/>
		<path id="Fill-322_5_" class="st0" d="M69.6,50.7c0.2,0.1,0.2,0.4,0,0.5s-0.6,0.1-0.8,0s-0.2-0.4,0-0.5
			C69,50.7,69.3,50.7,69.6,50.7"/>
		<path id="Fill-324_8_" class="st0" d="M34.8,70.5c0.2-0.1,0.6-0.1,0.8,0s0.2,0.4,0,0.5s-0.6,0.1-0.8,0
			C34.7,70.8,34.7,70.7,34.8,70.5"/>
		<path id="Fill-326_8_" class="st0" d="M37.6,69.2c0.2,0.1,0.2,0.4,0,0.5s-0.6,0.1-0.8,0s-0.2-0.4,0-0.5S37.4,69,37.6,69.2"/>
		<path id="Fill-328_8_" class="st0" d="M39.6,67.9c0.2,0.1,0.2,0.4,0,0.5s-0.6,0.1-0.8,0s-0.2-0.4,0-0.5
			C39.1,67.8,39.4,67.8,39.6,67.9"/>
		<path id="Fill-330_8_" class="st0" d="M32.9,69.2c0.2-0.1,0.6-0.1,0.8,0s0.2,0.4,0,0.5s-0.6,0.1-0.8,0S32.6,69.3,32.9,69.2"/>
		<path id="Fill-332_8_" class="st0" d="M35.6,67.9c0.2,0.1,0.2,0.4,0,0.5s-0.6,0.1-0.8,0s-0.2-0.4,0-0.5
			C35,67.8,35.5,67.8,35.6,67.9"/>
		<path id="Fill-334_8_" class="st0" d="M37.6,66.6c0.2,0.1,0.2,0.4,0,0.5s-0.6,0.1-0.8,0s-0.2-0.4,0-0.5
			C37,66.3,37.4,66.3,37.6,66.6"/>
		<path id="Fill-205_9_" class="st0" d="M14.6,57.7c0.2,0.1,0.2,0.4,0,0.5s-0.6,0.1-0.8,0s-0.2-0.4,0-0.5
			C14.1,57.4,14.5,57.4,14.6,57.7"/>
		<path id="Fill-207_9_" class="st0" d="M16.6,56.2c0.2,0.1,0.2,0.4,0,0.5s-0.6,0.1-0.8,0c-0.2-0.1-0.2-0.4,0-0.5
			C16,56.1,16.4,56.1,16.6,56.2"/>
		<path id="Fill-209_9_" class="st0" d="M18.6,54.9c0.2,0.1,0.2,0.4,0,0.5s-0.6,0.1-0.8,0c-0.2-0.1-0.2-0.4,0-0.5
			C18.1,54.7,18.4,54.7,18.6,54.9"/>
		<path id="Fill-211_25_" class="st0" d="M11.9,56.2c0.2-0.1,0.6-0.1,0.8,0s0.2,0.4,0,0.5s-0.6,0.1-0.8,0S11.6,56.3,11.9,56.2"/>
		<path id="Fill-213_9_" class="st0" d="M14.6,54.9c0.2,0.1,0.2,0.4,0,0.5s-0.6,0.1-0.8,0s-0.2-0.4,0-0.5
			C14.1,54.7,14.5,54.7,14.6,54.9"/>
		<path id="Fill-215_9_" class="st0" d="M16.6,53.6c0.2,0.1,0.2,0.4,0,0.5s-0.6,0.1-0.8,0c-0.2-0.1-0.2-0.4,0-0.5
			C16,53.5,16.4,53.5,16.6,53.6"/>
		<path id="Fill-217_25_" class="st0" d="M12.6,53.6c0.2,0.1,0.2,0.4,0,0.5s-0.6,0.1-0.8,0s-0.2-0.4,0-0.5
			C12.1,53.5,12.4,53.5,12.6,53.6"/>
		<path id="Fill-219_9_" class="st0" d="M14.6,52.3c0.2,0.1,0.2,0.4,0,0.5s-0.6,0.1-0.8,0s-0.2-0.4,0-0.5
			C14.1,52.1,14.5,52.1,14.6,52.3"/>
		<path id="Fill-221_25_" class="st0" d="M12.6,50.9c0.2,0.1,0.2,0.4,0,0.5s-0.6,0.1-0.8,0s-0.2-0.4,0-0.5
			C12.1,50.8,12.4,50.8,12.6,50.9"/>
		<path id="Fill-211_24_" class="st0" d="M9.6,54.8c0.2-0.1,0.6-0.1,0.8,0s0.2,0.4,0,0.5s-0.6,0.1-0.8,0C9.4,55.2,9.4,54.9,9.6,54.8
			"/>
		<path id="Fill-217_24_" class="st0" d="M10.4,52.1c0.2,0.1,0.2,0.4,0,0.5s-0.6,0.1-0.8,0s-0.2-0.4,0-0.5
			C9.7,52.1,10.2,52.1,10.4,52.1"/>
		<path id="Fill-221_24_" class="st0" d="M10.4,49.5c0.2,0.1,0.2,0.4,0,0.5s-0.6,0.1-0.8,0s-0.2-0.4,0-0.5
			C9.7,49.4,10.2,49.4,10.4,49.5"/>
		<path id="Fill-211_23_" class="st0" d="M7.1,53.4c0.2-0.1,0.6-0.1,0.8,0c0.2,0.1,0.2,0.4,0,0.5c-0.2,0.1-0.6,0.1-0.8,0
			C6.9,53.8,6.9,53.5,7.1,53.4"/>
		<path id="Fill-217_23_" class="st0" d="M7.9,50.8c0.2,0.1,0.2,0.4,0,0.5c-0.2,0.1-0.6,0.1-0.8,0s-0.2-0.4,0-0.5
			C7.3,50.7,7.7,50.7,7.9,50.8"/>
		<path id="Fill-221_23_" class="st0" d="M7.9,48.1c0.2,0.1,0.2,0.4,0,0.5c-0.2,0.1-0.6,0.1-0.8,0s-0.2-0.4,0-0.5
			C7.3,48.1,7.7,48.1,7.9,48.1"/>
		<path id="Fill-211_22_" class="st0" d="M5.1,52c0.2-0.1,0.6-0.1,0.8,0s0.2,0.4,0,0.5s-0.6,0.1-0.8,0C4.9,52.3,4.9,52.1,5.1,52"/>
		<path id="Fill-217_22_" class="st0" d="M5.8,49.4c0.2,0.1,0.2,0.4,0,0.5S5.2,50,5,49.9s-0.2-0.4,0-0.5C5.3,49.2,5.5,49.2,5.8,49.4
			"/>
		<path id="Fill-221_22_" class="st0" d="M5.8,46.6C6,46.8,6,47,5.8,47.2s-0.6,0.1-0.8,0s-0.2-0.4,0-0.5C5.3,46.5,5.5,46.5,5.8,46.6
			"/>
		<path id="Fill-211_21_" class="st0" d="M2.6,50.5c0.2-0.1,0.6-0.1,0.8,0s0.2,0.4,0,0.5s-0.6,0.1-0.8,0S2.4,50.7,2.6,50.5"/>
		<path id="Fill-217_21_" class="st0" d="M3.3,47.9c0.2,0.1,0.2,0.4,0,0.5s-0.6,0.1-0.8,0s-0.2-0.4,0-0.5
			C2.8,47.7,3.2,47.7,3.3,47.9"/>
		<path id="Fill-221_21_" class="st0" d="M3.4,45.3c0.2,0.1,0.2,0.4,0,0.5s-0.6,0.1-0.8,0s-0.2-0.4,0-0.5
			C2.8,45.1,3.2,45.1,3.4,45.3"/>
		<path id="Fill-256_7_" class="st0" d="M21.9,62.6c0.2-0.1,0.6-0.1,0.8,0s0.2,0.4,0,0.5s-0.6,0.1-0.8,0
			C21.7,63,21.7,62.8,21.9,62.6"/>
		<path id="Fill-290_7_" class="st0" d="M19.9,61.3c0.2-0.1,0.6-0.1,0.8,0c0.2,0.1,0.2,0.4,0,0.5s-0.6,0.1-0.8,0
			C19.8,61.7,19.8,61.4,19.9,61.3"/>
		<path id="Fill-292_7_" class="st0" d="M22.6,60c0.2,0.1,0.2,0.4,0,0.5s-0.6,0.1-0.8,0c-0.2-0.1-0.2-0.4,0-0.5
			C22.1,59.8,22.5,59.8,22.6,60"/>
		<path id="Fill-324_7_" class="st0" d="M18,60c0.2-0.1,0.6-0.1,0.8,0c0.2,0.1,0.2,0.4,0,0.5s-0.6,0.1-0.8,0
			C17.7,60.4,17.7,60.1,18,60"/>
		<path id="Fill-326_7_" class="st0" d="M20.7,58.7c0.2,0.1,0.2,0.4,0,0.5s-0.6,0.1-0.8,0c-0.2-0.1-0.2-0.4,0-0.5
			C20.1,58.5,20.4,58.5,20.7,58.7"/>
		<path id="Fill-328_7_" class="st0" d="M22.6,57.4c0.2,0.1,0.2,0.4,0,0.5s-0.6,0.1-0.8,0c-0.2-0.1-0.2-0.4,0-0.5
			C22.1,57.3,22.5,57.3,22.6,57.4"/>
		<path id="Fill-330_7_" class="st0" d="M15.9,58.7c0.2-0.1,0.6-0.1,0.8,0c0.2,0.1,0.2,0.4,0,0.5s-0.6,0.1-0.8,0
			C15.7,59.1,15.7,58.8,15.9,58.7"/>
		<path id="Fill-332_7_" class="st0" d="M18.8,57.4c0.2,0.1,0.2,0.4,0,0.5s-0.6,0.1-0.8,0c-0.2-0.1-0.2-0.4,0-0.5
			C18.1,57.3,18.5,57.3,18.8,57.4"/>
		<path id="Fill-334_7_" class="st0" d="M20.7,56c0.2,0.1,0.2,0.4,0,0.5s-0.6,0.1-0.8,0c-0.2-0.1-0.2-0.4,0-0.5
			C20.1,55.8,20.4,55.8,20.7,56"/>
		<path id="Fill-336_5_" class="st0" d="M74.8,52.1c0.2-0.1,0.6-0.1,0.8,0s0.2,0.4,0,0.5s-0.6,0.1-0.8,0
			C74.7,52.3,74.7,52.2,74.8,52.1"/>
		<path id="Fill-338_5_" class="st0" d="M77.6,50.7c0.2,0.1,0.2,0.4,0,0.5s-0.6,0.1-0.8,0s-0.2-0.4,0-0.5
			C77,50.7,77.4,50.7,77.6,50.7"/>
		<path id="Fill-340_5_" class="st0" d="M79.5,49.4c0.2,0.1,0.2,0.4,0,0.5s-0.6,0.1-0.8,0s-0.2-0.4,0-0.5
			C78.9,49.2,79.3,49.2,79.5,49.4"/>
		<path id="Fill-342_14_" class="st0" d="M81.6,48.1c0.2,0.1,0.2,0.4,0,0.5s-0.6,0.1-0.8,0s-0.2-0.4,0-0.5
			C81,47.9,81.3,47.9,81.6,48.1"/>
		<path id="Fill-344_5_" class="st0" d="M72.7,50.7c0.2-0.1,0.6-0.1,0.8,0s0.2,0.4,0,0.5s-0.6,0.1-0.8,0
			C72.6,51,72.6,50.8,72.7,50.7"/>
		<path id="Fill-346_6_" class="st0" d="M75.6,49.4c0.2,0.1,0.2,0.4,0,0.5s-0.6,0.1-0.8,0s-0.2-0.4,0-0.5
			C75,49.2,75.3,49.2,75.6,49.4"/>
		<path id="Fill-348_6_" class="st0" d="M77.6,48.1c0.2,0.1,0.2,0.4,0,0.5s-0.6,0.1-0.8,0s-0.2-0.4,0-0.5
			C76.9,47.9,77.4,47.9,77.6,48.1"/>
		<path id="Fill-350_6_" class="st0" d="M79.5,46.8c0.2,0.1,0.2,0.4,0,0.5s-0.6,0.1-0.8,0s-0.2-0.4,0-0.5
			C78.9,46.6,79.3,46.6,79.5,46.8"/>
		<path id="Fill-352_15_" class="st0" d="M81.6,45.3c0.2,0.1,0.2,0.4,0,0.5s-0.6,0.1-0.8,0s-0.2-0.4,0-0.5
			C81,45.3,81.3,45.3,81.6,45.3"/>
		<path id="Fill-354_6_" class="st0" d="M70.8,49.4c0.2-0.1,0.6-0.1,0.8,0s0.2,0.4,0,0.5s-0.6,0.1-0.8,0S70.6,49.5,70.8,49.4"/>
		<path id="Fill-356_6_" class="st0" d="M73.5,48.1c0.2,0.1,0.2,0.4,0,0.5s-0.6,0.1-0.8,0s-0.2-0.4,0-0.5
			C73,47.9,73.4,47.9,73.5,48.1"/>
		<path id="Fill-358_6_" class="st0" d="M75.6,46.8c0.2,0.1,0.2,0.4,0,0.5s-0.6,0.1-0.8,0s-0.2-0.4,0-0.5
			C75,46.6,75.3,46.6,75.6,46.8"/>
		<path id="Fill-360_6_" class="st0" d="M77.6,45.3c0.2,0.1,0.2,0.4,0,0.5s-0.6,0.1-0.8,0s-0.2-0.4,0-0.5
			C76.9,45.3,77.4,45.3,77.6,45.3"/>
		<path id="Fill-362_6_" class="st0" d="M79.5,44.2c0.2,0.1,0.2,0.4,0,0.5s-0.6,0.1-0.8,0s-0.2-0.4,0-0.5
			C78.9,43.9,79.3,43.9,79.5,44.2"/>
		<path id="Fill-364_14_" class="st0" d="M81.6,42.8c0.2,0.1,0.2,0.4,0,0.5s-0.6,0.1-0.8,0s-0.2-0.4,0-0.5
			C81,42.6,81.3,42.6,81.6,42.8"/>
		<path id="Fill-342_13_" class="st0" d="M84,46.8c0.2,0.1,0.2,0.4,0,0.5s-0.6,0.1-0.8,0s-0.2-0.4,0-0.5S83.8,46.6,84,46.8"/>
		<path id="Fill-352_14_" class="st0" d="M84,44c0.2,0.1,0.2,0.4,0,0.5s-0.6,0.1-0.8,0s-0.2-0.4,0-0.5C83.3,43.9,83.8,43.9,84,44"/>
		<path id="Fill-364_13_" class="st0" d="M84,41.5c0.2,0.1,0.2,0.4,0,0.5s-0.6,0.1-0.8,0s-0.2-0.4,0-0.5
			C83.3,41.3,83.8,41.3,84,41.5"/>
		<path id="Fill-342_12_" class="st0" d="M86.2,45.3c0.2,0.1,0.2,0.4,0,0.5s-0.6,0.1-0.8,0s-0.2-0.4,0-0.5
			C85.6,45.2,85.9,45.2,86.2,45.3"/>
		<path id="Fill-352_13_" class="st0" d="M86.2,42.8c0.2,0.1,0.2,0.4,0,0.5s-0.6,0.1-0.8,0s-0.2-0.4,0-0.5
			C85.6,42.5,85.9,42.5,86.2,42.8"/>
		<path id="Fill-364_12_" class="st0" d="M86.2,40c0.2,0.1,0.2,0.4,0,0.5s-0.6,0.1-0.8,0s-0.2-0.4,0-0.5S85.9,39.9,86.2,40"/>
		<path id="Fill-342_11_" class="st0" d="M88.3,43.8c0.2,0.1,0.2,0.4,0,0.5s-0.6,0.1-0.8,0s-0.2-0.4,0-0.5
			C87.9,43.7,88.1,43.7,88.3,43.8"/>
		<path id="Fill-352_12_" class="st0" d="M88.3,41.2c0.2,0.1,0.2,0.4,0,0.5s-0.6,0.1-0.8,0s-0.2-0.4,0-0.5
			C87.9,41.1,88.1,41.1,88.3,41.2"/>
		<path id="Fill-364_11_" class="st0" d="M88.3,38.5c0.2,0.1,0.2,0.4,0,0.5s-0.6,0.1-0.8,0s-0.2-0.4,0-0.5
			C87.9,38.4,88.1,38.4,88.3,38.5"/>
		<g>
			<polygon id="Fill-2912_3_" class="st1" points="88.8,35.4 40.8,65.7 0,38.7 48,8.4 			"/>
			<polygon id="Fill-2914_3_" class="st2" points="88.8,37.3 40.8,67.8 0,40.8 48,10.5 			"/>
			<path class="st0" d="M41,65.8L41,65.8l0.5,0.3l48.3-30.8V35l-0.4-0.3L48.5,7.8L0,38.9 M48.2,8.7l40.2,26.5L56.9,54.7L41,65.2
				L0.9,38.6L48.2,8.7z"/>
		</g>
		<g>
			<path class="st1" d="M38.1,9c-0.3-0.3-0.6-0.7-0.8-0.9l0,0c-1-1.4-2.7-2.5-4.6-2.6c-2,0-4,0.9-5.1,2.6h-0.2
				c-7,12.4-9.8,24.1-9.2,27.6c0.1,1.3,10.2,6.2,19.8,3.9c5.8-1.4,10.5-5.6,12.1-8.6c1-1.8-0.3-4.3-1.2-6.2
				C44.8,16.7,40.8,11.7,38.1,9z"/>
			<path class="st0" d="M32.5,39.9L32.5,39.9c-4.4,0-8.2-1.2-10-1.8c-2.1-0.8-4.4-2.1-4.6-2.8c-0.5-3.6,2.4-15.1,9.3-27.5l0.1-0.1
				h0.3c1.1-1.7,3-2.7,5.2-2.6c1.8,0,3.5,1,4.6,2.6l0,0c0.1,0.3,0.5,0.5,0.8,0.9c2.7,2.7,6.7,7.6,10.6,15.7c0.1,0.1,0.1,0.3,0.2,0.4
				c0.9,1.8,2,4.1,1,6C48.2,34,43.5,38,38,39.3C36.1,39.8,34.3,39.9,32.5,39.9z M27.5,8.2c-3.8,7-6.1,12.9-7.2,16.8
				c-1.4,4.5-2,8.4-1.8,10.2c0,0.3,1.4,1.3,4.3,2.5c1.8,0.7,5.5,1.8,9.9,1.8l0,0c1.8,0,3.5-0.1,5.2-0.5c5.4-1.3,10.2-5.2,11.9-8.4
				c0.9-1.7-0.1-3.6-1-5.4c-0.1-0.1-0.1-0.3-0.2-0.4c-3.8-8-7.8-12.9-10.5-15.5c-0.3-0.4-0.7-0.6-0.8-1c-1-1.4-2.6-2.3-4.3-2.5h-0.1
				c-1.9,0-3.6,0.9-4.6,2.6L28,8.4h-0.6L27.5,8.2L27.5,8.2z"/>
			<path class="st2" d="M36.9,10.8c-0.2-0.3-0.5-0.5-0.7-0.9l0,0c-0.9-1.3-2.4-2.2-4.1-2.2c-1.8,0-3.5,0.9-4.5,2.3h-0.2
				c-6.1,11-8.7,21.2-8.2,24.2c0.1,1.2,9,5.4,17.4,3.5c5.2-1.2,9.2-4.9,10.6-7.6c0.9-1.7-0.2-3.8-1.1-5.4
				C42.8,17.5,39.3,13.1,36.9,10.8z"/>
			<path class="st1" d="M38.5,12.2c-0.2-0.3-0.5-0.5-0.7-0.9l0,0c-0.8-1.2-2.3-2.1-3.7-2.1c-1.8,0-3.3,0.8-4.2,2.2h-0.2
				c-5.6,10.2-8,19.7-7.6,22.5c0.1,1.2,8.4,5,16.3,3.2c4.7-1.2,8.5-4.5,9.9-7c0.8-1.5-0.2-3.5-1-5.1C43.9,18.4,40.7,14.4,38.5,12.2z
				"/>
			<path class="st0" d="M47.2,25.5c-3.2-6.7-6.5-10.9-8.8-13.1c-0.2-0.3-0.5-0.5-0.7-0.9c-0.8-1.3-2.3-2.1-3.8-2.1
				c-0.2,0-0.5,0-0.6,0c0.8,0.4,1.4,0.9,1.8,1.6c0.2,0.3,0.5,0.6,0.7,0.9c2.3,2.2,2.7,4.9,5.9,11.6c0.8,1.5,1.9,3.5,1,5.2
				c-1.4,2.6-2.3,7.4-7.1,8.5c-1,0.3-1.9,0.4-2.9,0.4c-0.5,0-0.5,0.8,0,0.8c1.8,0,3.6,0,5.4-0.5c4.9-1.2,8.6-4.7,9.9-7.2
				C49,29,47.9,27.1,47.2,25.5z"/>
		</g>
		<title>Group 3</title>
		<desc>Created with Sketch.</desc>
		<g>
			<path class="st1" d="M57,19.4c-0.3-0.3-0.6-0.6-0.8-0.9l0,0c-1-1.4-2.8-2.5-4.6-2.6c-2.1,0-4,0.9-5.2,2.6h-0.2
				c-7,12.4-9.9,24-9.4,27.5c0.2,1.3,10.4,6.1,20.1,3.9c5.9-1.4,10.6-5.6,12.3-8.6c1-1.8-0.3-4.3-1.3-6.1C63.9,27,59.7,22.1,57,19.4
				z"/>
			<path class="st0" d="M51.2,50.3L51.2,50.3c-4.4,0-8.2-1.2-10-1.8c-2.2-0.8-4.5-2.1-4.6-2.8C36,42,38.8,30.5,45.7,18.2l0.1-0.1
				h0.3c1.1-1.7,3-2.7,5.2-2.6c1.8,0,3.5,1,4.6,2.6l0,0c0.1,0.3,0.5,0.5,0.8,0.9c2.7,2.7,6.7,7.8,10.6,15.8c0.1,0.1,0.1,0.3,0.2,0.4
				c0.9,1.8,2,4.1,1,6c-1.8,3.4-6.5,7.4-12.1,8.7C54.8,50,53,50.3,51.2,50.3z M46.1,18.4c-3.8,7-6.1,12.9-7.2,16.8
				c-1.4,4.5-2,8.4-1.8,10.2c0,0.3,1.4,1.4,4.3,2.5c1.8,0.7,5.5,1.8,9.9,1.8c1.8,0,3.5-0.1,5.2-0.5c5.4-1.3,10.2-5.2,11.9-8.4
				c0.9-1.7-0.1-3.6-1-5.4c-0.1-0.1-0.1-0.3-0.2-0.4c-3.8-7.9-7.8-13-10.5-15.7c-0.3-0.4-0.7-0.6-0.8-1c-1-1.4-2.6-2.3-4.3-2.5h-0.1
				c-1.9,0-3.6,0.9-4.6,2.6l-0.1,0.1L46.1,18.4L46.1,18.4z"/>
			<path class="st2" d="M55.5,21c-0.2-0.3-0.5-0.5-0.7-0.9l0,0c-0.9-1.3-2.4-2.2-4.1-2.2c-1.8,0-3.5,0.9-4.5,2.3H46
				c-6.1,11-8.6,21.2-8.2,24.2c0.1,1.2,9,5.4,17.4,3.5c5.2-1.2,9.2-4.9,10.6-7.6c0.9-1.7-0.2-3.8-1.1-5.4
				C61.3,27.9,57.8,23.3,55.5,21z"/>
			<path class="st1" d="M57,22.4c-0.2-0.3-0.5-0.5-0.7-0.9l0,0c-0.8-1.2-2.3-2.1-3.7-2.1c-1.8,0-3.3,0.8-4.2,2.2h-0.2
				c-5.7,10.2-8,19.7-7.6,22.5c0.1,1.2,8.4,5,16.3,3.2c4.9-1.2,8.6-4.7,9.9-7c0.8-1.5-0.2-3.5-1-5C62.6,28.6,59.3,24.6,57,22.4z"/>
			<path class="st0" d="M65.7,35.8c-3.2-6.7-6.5-10.9-8.8-13.1c-0.2-0.3-0.5-0.5-0.7-0.9c-0.8-1.3-2.3-2.1-3.8-2.1
				c-0.2,0-0.5,0-0.6,0c0.8,0.4,1.4,0.9,1.8,1.5c0.2,0.3,0.5,0.6,0.7,0.9c2.3,2.2,2.7,4.9,5.9,11.6c0.8,1.5,1.9,3.5,1,5.2
				c-1.4,2.6-2.3,7.4-7.1,8.5c-1,0.3-1.9,0.4-2.9,0.4c-0.5,0-0.5,0.8,0,0.8c1.8,0,3.6,0,5.4-0.5c4.9-1.2,8.7-4.7,10.1-7.1
				C67.5,39.3,66.5,37.3,65.7,35.8z"/>
		</g>
	</g>
</g>
<g id="Capa_2_1_">
</g>
<path class="st3" d="M23.7,24.6H8.7c-1.6,0-2.9-1.3-2.9-2.9v-3.4c0-1.6,1.3-2.9,2.9-2.9h14.9c1.6,0,2.9,1.3,2.9,2.9v3.4
	C26.6,23.3,25.3,24.6,23.7,24.6z"/>
<g>
	<g>
		<path d="M7.6,17.5h0.8l1,2.8c0.1,0.4,0.2,0.7,0.4,1.1h0c0.1-0.4,0.2-0.7,0.4-1.1l1-2.8H12v5.2h-0.6v-2.9c0-0.5,0.1-1.1,0.1-1.6h0
			L11,19.5l-1,2.7H9.6l-1-2.7l-0.4-1.2h0c0,0.5,0.1,1.1,0.1,1.6v2.9H7.6V17.5z"/>
		<path d="M13.4,17.5h1.3c1.6,0,2.5,0.9,2.5,2.6c0,1.7-0.9,2.6-2.4,2.6h-1.3V17.5z M14.7,22.2c1.2,0,1.8-0.8,1.8-2.1
			c0-1.3-0.6-2.1-1.8-2.1h-0.6v4.2H14.7z"/>
		<path d="M18.3,17.5h3v0.6H19v1.8h2v0.6h-2v2.3h-0.7V17.5z"/>
		<path d="M22.2,22.2h1.2v-3.8h-0.9V18c0.5-0.1,0.8-0.2,1.1-0.4H24v4.6h1.1v0.5h-2.9V22.2z"/>
	</g>
</g>
<path class="st3" d="M77.5,34.2H62.6c-1.6,0-2.9-1.3-2.9-2.9v-3.4c0-1.6,1.3-2.9,2.9-2.9h14.9c1.6,0,2.9,1.3,2.9,2.9v3.4
	C80.4,32.9,79.1,34.2,77.5,34.2z"/>
<g>
	<g>
		<path d="M61.4,27.1h0.8l1,2.8c0.1,0.4,0.2,0.7,0.4,1.1h0c0.1-0.4,0.2-0.7,0.4-1.1l1-2.8h0.8v5.2h-0.6v-2.9c0-0.5,0.1-1.1,0.1-1.6
			h0l-0.4,1.2l-1,2.7h-0.4l-1-2.7L62,27.9h0c0,0.5,0.1,1.1,0.1,1.6v2.9h-0.6V27.1z"/>
		<path d="M67.3,27.1h1.3c1.6,0,2.5,0.9,2.5,2.6c0,1.7-0.9,2.6-2.4,2.6h-1.3V27.1z M68.5,31.8c1.2,0,1.8-0.8,1.8-2.1
			c0-1.3-0.6-2.1-1.8-2.1h-0.6v4.2H68.5z"/>
		<path d="M72.2,27.1h3v0.6h-2.4v1.8h2V30h-2v2.3h-0.7V27.1z"/>
		<path d="M75.7,32c1.5-1.5,2.4-2.4,2.4-3.3c0-0.6-0.3-1-1-1c-0.4,0-0.8,0.3-1.1,0.6l-0.4-0.4c0.4-0.5,0.9-0.8,1.5-0.8
			c0.9,0,1.5,0.6,1.5,1.5c0,1-0.9,1.9-2.1,3.2c0.3,0,0.6,0,0.9,0H79v0.6h-3.3V32z"/>
	</g>
</g>
</svg>
