<?xml version="1.0" encoding="utf-8"?>
<!-- Generator: Adobe Illustrator 24.0.2, SVG Export Plug-In . SVG Version: 6.00 Build 0)  -->
<svg version="1.1" id="Capa_1" xmlns="http://www.w3.org/2000/svg" xmlns:xlink="http://www.w3.org/1999/xlink" x="0px" y="0px"
	 viewBox="0 0 512 512" style="enable-background:new 0 0 512 512;" xml:space="preserve">
<style type="text/css">
	.st0{fill:#DADADA;}
	.st1{fill:#B4B4B4;}
	.st2{fill:#434343;}
	.st3{fill:#707070;}
	.st4{fill:#8A8A8A;}
	.st5{fill:#E4E4E4;}
</style>
<g>
	<g>
		<g>
			<path class="st0" d="M256,511.9H0l128-208.4c58.6-95.5,197.4-95.5,256,0l128,208.4H256z"/>
			<path class="st1" d="M384,303.5c-29.3-47.7-78.7-71.6-128-71.6v280h0h256L384,303.5z"/>
		</g>
		<g>
			<path class="st1" d="M221.9,451.6c-6.3,0-12-4.1-14.1-10c-2.1-5.9-0.2-12.7,4.7-16.7c4.6-3.7,11.2-4.4,16.5-1.6
				c5.7,3,8.9,9.7,7.7,16.1C235.2,446.4,229,451.6,221.9,451.6L221.9,451.6z"/>
			<path class="st1" d="M161.9,381.6c-6.2,0-11.8-3.9-14-9.6c-2.2-5.7-0.6-12.3,3.8-16.4c4.5-4.1,11.1-5.1,16.5-2.5
				c5.5,2.6,9,8.6,8.5,14.7C176.2,375.4,169.7,381.6,161.9,381.6z"/>
			<path class="st1" d="M111.9,451.6c-6.3,0-12-4.1-14.1-10c-2.1-5.9-0.2-12.7,4.7-16.7c4.6-3.7,11.2-4.4,16.5-1.6
				c5.7,3,8.9,9.7,7.7,16.1C125.3,446.4,119,451.6,111.9,451.6z"/>
		</g>
	</g>
	<g>
		<g>
			<path class="st0" d="M113.6,190c-8.3,0-15-6.7-15-15V0.8h30V175C128.6,183.3,121.9,190,113.6,190z"/>
			<path class="st1" d="M113.6,250c-6.3,0-12-4.1-14.1-10c-2.1-6-0.1-12.9,4.9-16.8c4.8-3.8,11.6-4.2,16.8-1.1
				c5.4,3.2,8.3,9.6,7.1,15.8C127,244.8,120.7,250,113.6,250z"/>
		</g>
		<g>
			<g>
				<path class="st2" d="M204.1,100.2h307.6V0.1H204.1L204.1,100.2z"/>
				<path class="st3" d="M474.2,70.4h-107c-8.3,0-15-6.7-15-15s6.7-15,15-15h107c8.3,0,15,6.7,15,15S482.5,70.4,474.2,70.4z"/>
			</g>
			<g>
				<path class="st4" d="M97.4,0.1h207.8c0,55.3-46.5,100.1-103.9,100.1S97.4,55.4,97.4,0.1"/>
				<path class="st5" d="M159.6,0.1h83.3c0,22.1-18.7,40.1-41.7,40.1S159.6,22.2,159.6,0.1"/>
			</g>
		</g>
	</g>
</g>
</svg>
