<?xml version="1.0" encoding="utf-8"?>
<!-- Generator: Adobe Illustrator 24.0.2, SVG Export Plug-In . SVG Version: 6.00 Build 0)  -->
<svg version="1.1" id="Capa_1" xmlns="http://www.w3.org/2000/svg" xmlns:xlink="http://www.w3.org/1999/xlink" x="0px" y="0px"
	 viewBox="0 0 448 512" style="enable-background:new 0 0 448 512;" xml:space="preserve">
<style type="text/css">
	.st0{fill:#FFFFFF;}
</style>
<g>
	<path class="st0" d="M345.4,125.3l20.2-35.2c1.9-3.4,0.8-7.6-2.6-9.6l-28.6-16.4c-3.4-1.9-7.6-0.8-9.6,2.6l-20.2,35.2
		c-18.2-7.9-37.5-13-57.2-15.3V65.2h14.2c3.9,0,7-3.1,7-7v-33c0-3.9-3.1-7-7-7c0,0,0,0,0,0h-75.4c-3.9,0-7,3.1-7,7c0,0,0,0,0,0v33
		c0,3.9,3.1,7,7,7h14.2v21.4c-19.7,2.3-39,7.4-57.2,15.3l-20.2-35.2c-1.9-3.4-6.2-4.5-9.5-2.6c0,0,0,0,0,0L84.9,80.5
		c-3.4,1.9-4.5,6.2-2.6,9.6l20.2,35.2C11.9,192.4-7.3,320.3,59.7,411s195,109.9,285.7,42.9s109.9-195,42.9-285.7
		C376.2,151.8,361.8,137.4,345.4,125.3L345.4,125.3z M333.6,79.7l16.5,9.5l-16.2,28.2c-5.3-3.4-10.8-6.6-16.5-9.5L333.6,79.7z
		 M193.3,32.2h61.4v19h-61.4V32.2z M214.5,65.2h19v20.2c-3.1-0.1-6.3-0.2-9.5-0.2s-6.3,0.1-9.5,0.2V65.2z M98,89.2l16.5-9.5
		l16.2,28.2c-5.6,2.9-11.1,6.1-16.5,9.5L98,89.2z M224,479.8c-105.1,0-190.3-85.2-190.3-190.3S118.9,99.2,224,99.2
		s190.3,85.2,190.3,190.3c0,0,0,0,0,0C414.2,394.5,329,479.7,224,479.8z"/>
	<path class="st0" d="M361.6,368.2c28.2-49,28-109.4-0.4-158.3c-0.1-0.2-0.2-0.5-0.3-0.7c-0.1-0.2-0.3-0.4-0.4-0.5
		c-13.8-23.2-33.2-42.5-56.4-56.1c-0.2-0.2-0.4-0.3-0.6-0.4c-0.2-0.1-0.5-0.2-0.7-0.3c-49-28.2-109.4-28-158.3,0.4
		c-0.2,0.1-0.5,0.2-0.7,0.3c-0.2,0.1-0.4,0.3-0.5,0.4c-23.2,13.8-42.5,33.2-56.1,56.4c-0.3,0.4-0.6,0.8-0.7,1.3
		c-28.2,49-28,109.4,0.4,158.3c0.1,0.2,0.2,0.5,0.3,0.7c0.1,0.2,0.2,0.3,0.3,0.4c13.8,23.2,33.2,42.6,56.5,56.3
		c0.2,0.2,0.4,0.3,0.6,0.4c0.2,0.1,0.4,0.1,0.5,0.2c49.1,28.3,109.6,28.1,158.6-0.5c0.2-0.1,0.4-0.1,0.5-0.2s0.4-0.3,0.5-0.4
		c23.2-13.8,42.6-33.3,56.2-56.6c0.1-0.2,0.2-0.3,0.3-0.4C361.4,368.7,361.5,368.5,361.6,368.2z M303.1,410.5l-9-15.3
		c-2-3.3-6.2-4.5-9.6-2.5s-4.5,6.2-2.5,9.6l9,15.4c-18.6,9.8-39,15.3-60,16.3v-17.9c0-3.9-3.1-7-7-7s-7,3.1-7,7V434
		c-20.7-1-40.9-6.4-59.3-16l8.9-15.4c1.9-3.4,0.7-7.6-2.7-9.5c-3.3-1.9-7.5-0.7-9.4,2.5l-8.9,15.4c-17-11-31.6-25.5-42.7-42.4
		l15.3-9c3.3-2,4.4-6.3,2.5-9.6c-2-3.3-6.2-4.4-9.5-2.5l-15.4,9c-9.8-18.6-15.3-39-16.3-60h17.9c3.9,0,7-3.1,7-7s-3.1-7-7-7H79.5
		c1-20.7,6.4-40.9,16-59.3l15.4,8.9c3.4,1.9,7.6,0.6,9.5-2.8c1.8-3.3,0.7-7.4-2.5-9.4l-15.4-8.9c11-17,25.5-31.5,42.4-42.7l9,15.3
		c2,3.3,6.3,4.4,9.6,2.5c3.3-2,4.4-6.2,2.5-9.5l-9-15.4c18.6-9.8,39-15.3,60-16.3v17.9c0,3.9,3.1,7,7,7c3.9,0,7-3.1,7-7V145
		c20.7,1,40.9,6.4,59.3,16l-8.9,15.4c-2,3.3-0.9,7.6,2.4,9.6c3.3,2,7.6,0.9,9.6-2.4c0-0.1,0.1-0.1,0.1-0.2l8.9-15.4
		c17,11,31.6,25.5,42.7,42.4l-15.3,9c-3.3,1.9-4.5,6.2-2.5,9.6c1.9,3.3,6.2,4.5,9.6,2.5c0,0,0,0,0.1,0l15.4-9
		c9.8,18.6,15.3,39,16.3,60h-17.9c-3.9,0-7,3.1-7,7s3.1,7,7,7h17.9c-1,20.7-6.4,40.9-16,59.3l-15.4-8.9c-3.3-1.9-7.6-0.8-9.6,2.6
		c-1.9,3.3-0.8,7.6,2.6,9.6l0,0l15.4,8.9C334.5,384.9,320,399.4,303.1,410.5z"/>
	<path class="st0" d="M329.6,289.5c0-3.9-3.1-7-7-7h-67.4c-2.7-12-12.1-21.5-24.2-24.2v-67.4c0-3.9-3.1-7-7-7s-7,3.1-7,7v67.4
		c-17.2,3.9-28.1,21-24.2,38.2s21,28.1,38.2,24.2c12.1-2.7,21.5-12.1,24.2-24.2h67.4C326.4,296.5,329.6,293.4,329.6,289.5z
		 M224,307.5c-9.9,0-18-8-18-18s8-18,18-18c9.9,0,18,8,18,18c0,0,0,0,0,0C242,299.4,233.9,307.4,224,307.5z"/>
</g>
</svg>
