<?xml version="1.0" encoding="utf-8"?>
<!-- Generator: Adobe Illustrator 24.0.2, SVG Export Plug-In . SVG Version: 6.00 Build 0)  -->
<svg version="1.1" id="Outline" xmlns="http://www.w3.org/2000/svg" xmlns:xlink="http://www.w3.org/1999/xlink" x="0px" y="0px"
	 viewBox="0 0 512 333" style="enable-background:new 0 0 512 333;" xml:space="preserve">
<style type="text/css">
	.st0{fill:#FFFFFF;}
</style>
<path class="st0" d="M160,159.1h56c4.4,0,8-3.6,8-8s-3.6-8-8-8h-56c-4.4,0-8,3.6-8,8S155.6,159.1,160,159.1z"/>
<path class="st0" d="M456,207.1h-3.8c7.3-10.1,11.8-24.2,11.8-40c0-31.4-17.6-56-40-56c-1.3,0-2.6,0.1-4,0.3
	c7.4-10.1,12-24.3,12-40.3c0-31.4-17.6-56-40-56H120c-22.4,0-40,24.6-40,56c0,15.8,4.5,29.9,11.8,40H88c-22.4,0-40,24.6-40,56
	c0,15.8,4.5,29.9,11.8,40H56c-22.4,0-40,24.6-40,56s17.6,56,40,56h400c22.4,0,40-24.6,40-56S478.4,207.1,456,207.1z M424,127.1
	c13,0,24,18.3,24,40s-11,40-24,40s-24-18.3-24-40S411,127.1,424,127.1z M392,31.1c13,0,24,18.3,24,40s-11,40-24,40s-24-18.3-24-40
	S379,31.1,392,31.1z M392,133.1c-1.2-2.2-2.5-4.3-4-6.3c2.6,0.4,5.3,0.4,7.9,0C394.5,128.8,393.2,130.9,392,133.1L392,133.1z
	 M395.8,207.1h-7.5c1.4-1.9,2.6-3.9,3.8-6C393.1,203.2,394.4,205.2,395.8,207.1L395.8,207.1z M384,167.1c0,21.7-11,40-24,40
	s-24-18.3-24-40s11-40,24-40S384,145.4,384,167.1z M120,31.1h243.8c-7.3,10.1-11.8,24.2-11.8,40c0,2.7,0.1,5.4,0.4,8H296
	c-4.4,0-8,3.6-8,8s3.6,8,8,8h59.7c1.9,5.8,4.7,11.3,8.2,16.3c-1.3-0.2-2.6-0.3-4-0.3H120c-7.1,0-14.4-6-19.1-16H136c4.4,0,8-3.6,8-8
	s-3.6-8-8-8H96.5c-0.3-2.7-0.5-5.3-0.5-8C96,47.2,108.4,31.1,120,31.1L120,31.1z M88,127.1h243.8c-7.3,10.1-11.8,24.2-11.8,40
	c0,2.7,0.1,5.4,0.4,8H264c-4.4,0-8,3.6-8,8s3.6,8,8,8h59.7c1.9,5.8,4.7,11.3,8.2,16.3c-1.3-0.2-2.6-0.3-4-0.3H88
	c-7.1,0-14.4-6-19.1-16H104c4.4,0,8-3.6,8-8s-3.6-8-8-8H64.5c-0.3-2.7-0.5-5.3-0.5-8C64,143.2,76.4,127.1,88,127.1L88,127.1z
	 M288.4,271.1H232c-4.4,0-8,3.6-8,8s3.6,8,8,8h59.7c1.8,5.7,4.6,11.1,8,16H56c-7.1,0-14.4-6-19.1-16H72c4.4,0,8-3.6,8-8s-3.6-8-8-8
	H32.5c-0.3-2.7-0.5-5.3-0.5-8c0-23.9,12.4-40,24-40h243.8c-7.3,10.1-11.8,24.2-11.8,40C288,265.8,288.1,268.5,288.4,271.1z
	 M328,303.1c-13,0-24-18.3-24-40s11-40,24-40s24,18.3,24,40S341,303.1,328,303.1z M356.2,303.1c3.5-4.9,6.2-10.3,8-16h55.5
	c1.8,5.7,4.6,11.1,8,16H356.2z M416,263.1c0,2.7,0.1,5.4,0.4,8h-48.8c0.3-2.6,0.4-5.3,0.4-8s-0.1-5.4-0.4-8H392c4.4,0,8-3.6,8-8
	s-3.6-8-8-8h-27.7c-1.8-5.7-4.6-11.1-8-16h71.5C420.5,233.2,416,247.3,416,263.1L416,263.1z M456,303.1c-13,0-24-18.3-24-40
	s11-40,24-40s24,18.3,24,40S469,303.1,456,303.1z"/>
<path class="st0" d="M264,239.1h-48c-4.4,0-8,3.6-8,8s3.6,8,8,8h48c4.4,0,8-3.6,8-8S268.4,239.1,264,239.1z"/>
<path class="st0" d="M112,247.1c0-4.4-3.6-8-8-8H64c-4.4,0-8,3.6-8,8s3.6,8,8,8h40C108.4,255.1,112,251.5,112,247.1z"/>
<path class="st0" d="M136,255.1h48c4.4,0,8-3.6,8-8s-3.6-8-8-8h-48c-4.4,0-8,3.6-8,8S131.6,255.1,136,255.1z"/>
<path class="st0" d="M200,271.1h-96c-4.4,0-8,3.6-8,8s3.6,8,8,8h96c4.4,0,8-3.6,8-8S204.4,271.1,200,271.1z"/>
<path class="st0" d="M248,159.1h48c4.4,0,8-3.6,8-8s-3.6-8-8-8h-48c-4.4,0-8,3.6-8,8S243.6,159.1,248,159.1z"/>
<path class="st0" d="M96,159.1h40c4.4,0,8-3.6,8-8s-3.6-8-8-8H96c-4.4,0-8,3.6-8,8S91.6,159.1,96,159.1z"/>
<path class="st0" d="M136,175.1h-8c-4.4,0-8,3.6-8,8s3.6,8,8,8h104c4.4,0,8-3.6,8-8s-3.6-8-8-8H136z"/>
<path class="st0" d="M280,63.1h48c4.4,0,8-3.6,8-8s-3.6-8-8-8h-48c-4.4,0-8,3.6-8,8S275.6,63.1,280,63.1z"/>
<path class="st0" d="M128,63.1h40c4.4,0,8-3.6,8-8s-3.6-8-8-8h-40c-4.4,0-8,3.6-8,8S123.6,63.1,128,63.1z"/>
<path class="st0" d="M200,63.1h48c4.4,0,8-3.6,8-8s-3.6-8-8-8h-48c-4.4,0-8,3.6-8,8S195.6,63.1,200,63.1z"/>
<path class="st0" d="M160,87.1c0,4.4,3.6,8,8,8h96c4.4,0,8-3.6,8-8s-3.6-8-8-8h-96C163.6,79.1,160,82.7,160,87.1z"/>
</svg>
